<mxfile host="app.diagrams.net" modified="2023-08-02T03:07:22.420Z" agent="Mozilla/5.0 (Windows NT 10.0; Win64; x64) AppleWebKit/537.36 (KHTML, like Gecko) Chrome/114.0.0.0 Safari/537.36 OPR/100.0.0.0" etag="vrWBE002Hei_2RAQVXT_" version="21.6.6" type="device">
  <diagram name="Page-1" id="dZ3qeIJOxPRyaykBEbJl">
    <mxGraphModel dx="2217" dy="1818" grid="1" gridSize="10" guides="1" tooltips="1" connect="1" arrows="1" fold="1" page="1" pageScale="1" pageWidth="850" pageHeight="1100" math="0" shadow="0">
      <root>
        <mxCell id="0" />
        <mxCell id="1" parent="0" />
        <mxCell id="5MAVDHTDheA17adZHXT2-1" value="START" style="ellipse;whiteSpace=wrap;html=1;fillColor=#13E80C;strokeColor=#61FF05;" vertex="1" parent="1">
          <mxGeometry x="-750" y="-1080" width="135" height="60" as="geometry" />
        </mxCell>
        <mxCell id="5MAVDHTDheA17adZHXT2-2" value="&lt;font style=&quot;font-size: 16px;&quot;&gt;Open Dashboard&amp;nbsp;&lt;/font&gt;" style="rounded=1;whiteSpace=wrap;html=1;fillColor=#d5e8d4;strokeColor=#82b366;" vertex="1" parent="1">
          <mxGeometry x="-827.5" y="-950" width="290" height="60" as="geometry" />
        </mxCell>
        <mxCell id="5MAVDHTDheA17adZHXT2-3" value="&lt;span style=&quot;font-size: 16px;&quot;&gt;Create a Fork Repository&lt;/span&gt;" style="rounded=1;whiteSpace=wrap;html=1;fillColor=#dae8fc;strokeColor=#6c8ebf;" vertex="1" parent="1">
          <mxGeometry x="-480" y="-770" width="290" height="60" as="geometry" />
        </mxCell>
        <mxCell id="5MAVDHTDheA17adZHXT2-4" value="&lt;span style=&quot;font-size: 16px;&quot;&gt;Fork Repository Exists??&lt;/span&gt;" style="rhombus;whiteSpace=wrap;html=1;fillColor=#f8cecc;strokeColor=#b85450;" vertex="1" parent="1">
          <mxGeometry x="-827.5" y="-810" width="270" height="140" as="geometry" />
        </mxCell>
        <mxCell id="5MAVDHTDheA17adZHXT2-5" value="&lt;span style=&quot;font-size: 16px;&quot;&gt;Open Repository&lt;/span&gt;" style="rounded=1;whiteSpace=wrap;html=1;fillColor=#dae8fc;strokeColor=#6c8ebf;" vertex="1" parent="1">
          <mxGeometry x="-827.5" y="-600" width="290" height="60" as="geometry" />
        </mxCell>
        <mxCell id="5MAVDHTDheA17adZHXT2-13" style="edgeStyle=orthogonalEdgeStyle;rounded=0;orthogonalLoop=1;jettySize=auto;html=1;entryX=0.467;entryY=-0.022;entryDx=0;entryDy=0;entryPerimeter=0;" edge="1" parent="1" source="5MAVDHTDheA17adZHXT2-6" target="5MAVDHTDheA17adZHXT2-8">
          <mxGeometry relative="1" as="geometry" />
        </mxCell>
        <mxCell id="5MAVDHTDheA17adZHXT2-14" style="edgeStyle=orthogonalEdgeStyle;rounded=0;orthogonalLoop=1;jettySize=auto;html=1;" edge="1" parent="1" source="5MAVDHTDheA17adZHXT2-6">
          <mxGeometry relative="1" as="geometry">
            <mxPoint x="-429.9999999999998" y="-385" as="targetPoint" />
          </mxGeometry>
        </mxCell>
        <mxCell id="5MAVDHTDheA17adZHXT2-6" value="&lt;span style=&quot;font-size: 16px;&quot;&gt;Multiple branches exist??&lt;/span&gt;" style="rhombus;whiteSpace=wrap;html=1;fillColor=#f8cecc;strokeColor=#b85450;" vertex="1" parent="1">
          <mxGeometry x="-844" y="-460" width="303" height="150" as="geometry" />
        </mxCell>
        <mxCell id="5MAVDHTDheA17adZHXT2-15" value="" style="edgeStyle=orthogonalEdgeStyle;rounded=0;orthogonalLoop=1;jettySize=auto;html=1;" edge="1" parent="1" source="5MAVDHTDheA17adZHXT2-7" target="5MAVDHTDheA17adZHXT2-10">
          <mxGeometry relative="1" as="geometry" />
        </mxCell>
        <mxCell id="5MAVDHTDheA17adZHXT2-7" value="&lt;span style=&quot;font-size: 16px;&quot;&gt;Create a branch with main&amp;nbsp;&lt;/span&gt;" style="rounded=1;whiteSpace=wrap;html=1;fillColor=#dae8fc;strokeColor=#6c8ebf;" vertex="1" parent="1">
          <mxGeometry x="-425" y="-415" width="290" height="60" as="geometry" />
        </mxCell>
        <mxCell id="5MAVDHTDheA17adZHXT2-23" value="" style="edgeStyle=orthogonalEdgeStyle;rounded=0;orthogonalLoop=1;jettySize=auto;html=1;" edge="1" parent="1" source="5MAVDHTDheA17adZHXT2-8" target="5MAVDHTDheA17adZHXT2-21">
          <mxGeometry relative="1" as="geometry" />
        </mxCell>
        <mxCell id="5MAVDHTDheA17adZHXT2-8" value="&lt;span style=&quot;font-size: 16px;&quot;&gt;Update Information in branch&lt;/span&gt;" style="rounded=1;whiteSpace=wrap;html=1;fillColor=#dae8fc;strokeColor=#6c8ebf;" vertex="1" parent="1">
          <mxGeometry x="-827.5" y="40" width="290" height="60" as="geometry" />
        </mxCell>
        <mxCell id="5MAVDHTDheA17adZHXT2-16" value="" style="edgeStyle=orthogonalEdgeStyle;rounded=0;orthogonalLoop=1;jettySize=auto;html=1;" edge="1" parent="1" source="5MAVDHTDheA17adZHXT2-10" target="5MAVDHTDheA17adZHXT2-11">
          <mxGeometry relative="1" as="geometry" />
        </mxCell>
        <mxCell id="5MAVDHTDheA17adZHXT2-10" value="&lt;font style=&quot;font-size: 16px;&quot;&gt;Name the branch&lt;/font&gt;" style="rounded=1;whiteSpace=wrap;html=1;fillColor=#dae8fc;strokeColor=#6c8ebf;" vertex="1" parent="1">
          <mxGeometry x="-430" y="-270" width="300" height="70" as="geometry" />
        </mxCell>
        <mxCell id="5MAVDHTDheA17adZHXT2-17" style="edgeStyle=orthogonalEdgeStyle;rounded=0;orthogonalLoop=1;jettySize=auto;html=1;entryX=1;entryY=0.5;entryDx=0;entryDy=0;" edge="1" parent="1" source="5MAVDHTDheA17adZHXT2-11" target="5MAVDHTDheA17adZHXT2-8">
          <mxGeometry relative="1" as="geometry">
            <Array as="points">
              <mxPoint x="-280" y="70" />
            </Array>
          </mxGeometry>
        </mxCell>
        <mxCell id="5MAVDHTDheA17adZHXT2-19" style="edgeStyle=orthogonalEdgeStyle;rounded=0;orthogonalLoop=1;jettySize=auto;html=1;entryX=0;entryY=0.5;entryDx=0;entryDy=0;" edge="1" parent="1" source="5MAVDHTDheA17adZHXT2-11" target="5MAVDHTDheA17adZHXT2-12">
          <mxGeometry relative="1" as="geometry" />
        </mxCell>
        <mxCell id="5MAVDHTDheA17adZHXT2-11" value="&lt;span style=&quot;font-size: 16px;&quot;&gt;Branch name Exists??&lt;/span&gt;" style="rhombus;whiteSpace=wrap;html=1;fillColor=#f8cecc;strokeColor=#b85450;" vertex="1" parent="1">
          <mxGeometry x="-415" y="-140" width="270" height="140" as="geometry" />
        </mxCell>
        <mxCell id="5MAVDHTDheA17adZHXT2-20" style="edgeStyle=orthogonalEdgeStyle;rounded=0;orthogonalLoop=1;jettySize=auto;html=1;entryX=1;entryY=0.5;entryDx=0;entryDy=0;" edge="1" parent="1" source="5MAVDHTDheA17adZHXT2-12" target="5MAVDHTDheA17adZHXT2-10">
          <mxGeometry relative="1" as="geometry">
            <Array as="points">
              <mxPoint x="160" y="-235" />
            </Array>
          </mxGeometry>
        </mxCell>
        <mxCell id="5MAVDHTDheA17adZHXT2-12" value="&lt;font style=&quot;font-size: 16px;&quot;&gt;Name the branch Accordingly&lt;/font&gt;" style="rounded=1;whiteSpace=wrap;html=1;fillColor=#dae8fc;strokeColor=#6c8ebf;" vertex="1" parent="1">
          <mxGeometry y="-105" width="310" height="70" as="geometry" />
        </mxCell>
        <mxCell id="5MAVDHTDheA17adZHXT2-25" style="edgeStyle=orthogonalEdgeStyle;rounded=0;orthogonalLoop=1;jettySize=auto;html=1;entryX=0;entryY=0.5;entryDx=0;entryDy=0;" edge="1" parent="1" source="5MAVDHTDheA17adZHXT2-21" target="5MAVDHTDheA17adZHXT2-24">
          <mxGeometry relative="1" as="geometry" />
        </mxCell>
        <mxCell id="5MAVDHTDheA17adZHXT2-21" value="&lt;span style=&quot;font-size: 16px;&quot;&gt;Commit the Possible Changes&lt;/span&gt;" style="rounded=1;whiteSpace=wrap;html=1;fillColor=#dae8fc;strokeColor=#6c8ebf;" vertex="1" parent="1">
          <mxGeometry x="-827.5" y="200" width="290" height="60" as="geometry" />
        </mxCell>
        <mxCell id="5MAVDHTDheA17adZHXT2-27" value="" style="edgeStyle=orthogonalEdgeStyle;rounded=0;orthogonalLoop=1;jettySize=auto;html=1;" edge="1" parent="1" source="5MAVDHTDheA17adZHXT2-24" target="5MAVDHTDheA17adZHXT2-26">
          <mxGeometry relative="1" as="geometry" />
        </mxCell>
        <mxCell id="5MAVDHTDheA17adZHXT2-24" value="&lt;span style=&quot;font-size: 16px;&quot;&gt;Changes Successfully Executed&lt;/span&gt;" style="rhombus;whiteSpace=wrap;html=1;fillColor=#f8cecc;strokeColor=#b85450;" vertex="1" parent="1">
          <mxGeometry x="-415" y="160" width="270" height="140" as="geometry" />
        </mxCell>
        <mxCell id="5MAVDHTDheA17adZHXT2-30" value="" style="edgeStyle=orthogonalEdgeStyle;rounded=0;orthogonalLoop=1;jettySize=auto;html=1;" edge="1" parent="1" source="5MAVDHTDheA17adZHXT2-26" target="5MAVDHTDheA17adZHXT2-28">
          <mxGeometry relative="1" as="geometry" />
        </mxCell>
        <mxCell id="5MAVDHTDheA17adZHXT2-26" value="&lt;span style=&quot;font-size: 16px;&quot;&gt;Go to the issue Functionality&amp;nbsp;&lt;/span&gt;" style="rounded=1;whiteSpace=wrap;html=1;fillColor=#dae8fc;strokeColor=#6c8ebf;" vertex="1" parent="1">
          <mxGeometry x="-425" y="370" width="290" height="60" as="geometry" />
        </mxCell>
        <mxCell id="5MAVDHTDheA17adZHXT2-28" value="&lt;font style=&quot;font-size: 25px;&quot;&gt;END&lt;/font&gt;" style="text;html=1;strokeColor=none;fillColor=none;align=center;verticalAlign=middle;whiteSpace=wrap;rounded=0;" vertex="1" parent="1">
          <mxGeometry x="-310" y="500" width="60" height="30" as="geometry" />
        </mxCell>
      </root>
    </mxGraphModel>
  </diagram>
</mxfile>
